<?xml version="1.0" encoding="UTF-8"?>
<!DOCTYPE svg PUBLIC "-//W3C//DTD SVG 1.1//EN" "http://www.w3.org/Graphics/SVG/1.1/DTD/svg11.dtd">
<!-- Creator: CorelDRAW X8 -->
<svg xmlns="http://www.w3.org/2000/svg" xml:space="preserve" width="91.4398mm" height="91.4398mm" version="1.1" style="shape-rendering:geometricPrecision; text-rendering:geometricPrecision; image-rendering:optimizeQuality; fill-rule:evenodd; clip-rule:evenodd"
viewBox="0 0 9144 9144"
 xmlns:xlink="http://www.w3.org/1999/xlink">
 <defs>
  <style type="text/css">
   <![CDATA[
    .str0 {stroke:#373435;stroke-width:7.62}
    .fil1 {fill:none}
    .fil0 {fill:black}
    .fil2 {fill:#373435;fill-rule:nonzero}
   ]]>
  </style>
 </defs>
 <g id="Capa_x0020_1">
  <metadata id="CorelCorpID_0Corel-Layer"/>
  <g id="_1793462648352">
   <path class="fil0" d="M6731 7774l9 -22 106 -330 1 350 19 0c0,-22 2,-351 -2,-364 -22,-2 -17,-3 -28,30l-98 306c-1,1 -2,4 -2,5l-4 6 -99 -178c-16,-29 -32,-60 -49,-88l-36 -67c-9,-16 -5,-14 -25,-14 1,62 2,124 2,186l2 137c0,11 -3,38 3,43 4,-7 -1,-229 -1,-258l137 235c2,3 3,5 5,8l5 6c0,0 0,1 1,1 2,-5 1,-3 -2,-9l-86 -148c-15,-27 -30,-52 -45,-78 -4,-7 -7,-13 -11,-20 -7,-9 -4,-5 -5,-26 0,-20 -1,-43 0,-63l193 344c4,8 3,9 10,8z"/>
   <path class="fil0" d="M6717 7409c6,4 85,1 99,1 -5,19 -17,47 -24,66 -8,22 -16,44 -24,66 -2,7 -44,125 -50,132 -7,-17 -19,-34 -27,-51 -5,-9 -10,-17 -14,-25 -2,-4 -4,-8 -7,-12 -3,-8 -2,-11 -9,-10l46 86c6,12 7,19 22,23l101 -274c-11,-9 -63,-5 -86,-5l-22 0c-10,2 0,0 -5,3z"/>
   <path class="fil0" d="M6893 7769c2,2 -1,1 4,2l13 0c2,-29 0,-63 0,-92l0 -230c0,-11 3,-39 -2,-41 -4,7 -2,322 -2,359 -7,0 -10,-2 -13,2z"/>
  </g>
  <line class="fil1 str0" x1="7513" y1="7591" x2="7711" y2= "7591" />
  <path class="fil2" d="M6566 8043l-42 84 -18 -9c-12,-7 -21,-12 -25,-17 -7,-7 -11,-15 -12,-25 -1,-9 1,-18 6,-28 4,-9 10,-15 17,-19 7,-5 14,-7 21,-7 7,0 16,2 27,8l26 13zm-12 4l-9 -5c-12,-6 -20,-9 -25,-10 -8,-1 -15,0 -21,3 -6,4 -11,9 -15,17 -4,8 -6,16 -5,24 1,8 4,14 10,20 5,4 13,9 25,15l6 3 34 -67zm-144 16l-42 -33 6 -8 35 28 18 -23 -35 -28 6 -7 35 27 22 -29 -34 -27 6 -7 41 33 -58 74zm-60 -64l-7 6 -36 -37 7 -6 15 15 61 -58 6 7 -61 58 15 15zm-91 -100l55 -87 6 8 -18 29 22 34 33 -4 6 9 -103 13 -1 -2zm17 -9l38 -5 -18 -27 -20 32zm-60 -76l-3 -9 80 -27 -12 -35 9 -2 15 43 -89 30zm-26 -85l-1 -10 83 -14 -6 -36 9 -2 8 45 -93 17zm-11 -89l-2 -53 9 -1 1 45 30 -1 -1 -44 9 0 1 44 37 -1 -1 -44 9 0 1 53 -93 2zm77 -80l-4 -9c11,-3 18,-9 19,-16 1,-3 0,-6 -1,-9 -1,-3 -2,-6 -4,-8 -2,-1 -5,-3 -8,-3 -3,-1 -6,0 -9,1 -5,3 -11,7 -18,14 -7,6 -12,10 -15,12 -5,2 -10,3 -15,2 -4,0 -8,-2 -11,-5 -3,-2 -5,-5 -6,-9 -1,-4 -2,-8 -1,-12 1,-4 3,-8 6,-12 2,-3 7,-7 14,-10l4 9c-5,2 -9,5 -11,7 -2,2 -3,5 -3,8 -1,4 0,7 1,10 2,2 5,4 8,5 2,0 4,0 6,-1 2,0 5,-1 7,-3 2,-1 5,-5 12,-10 7,-7 13,-12 18,-14 5,-2 10,-3 15,-2 7,1 12,5 16,11 4,6 5,12 4,20 -1,5 -3,10 -7,14 -4,4 -10,7 -17,10zm84 -213l22 -3 -5 10 -16 2c1,9 -2,18 -6,26 -7,12 -17,20 -30,24 -13,3 -26,2 -38,-5 -7,-5 -14,-11 -18,-18 -5,-8 -7,-16 -7,-25 0,-9 2,-17 7,-25 7,-12 17,-20 30,-23 13,-4 25,-2 37,5 7,4 12,8 16,13 4,6 6,12 8,19zm-9 2c-3,-11 -9,-20 -19,-26 -7,-3 -14,-5 -21,-5 -7,0 -13,2 -19,5 -7,4 -12,9 -15,15 -4,6 -5,13 -5,20 0,7 1,14 5,20 4,6 9,11 15,15 10,5 20,6 31,4 10,-3 18,-9 23,-19 4,-6 6,-13 6,-20l-34 5 6 -10 27 -4zm-20 -101l7 -7 41 39c5,5 8,7 9,8 3,3 6,4 9,4 3,1 7,0 10,-1 4,-1 7,-3 10,-6 2,-2 3,-5 4,-8 1,-3 2,-6 1,-9 0,-3 -1,-6 -3,-9 -1,-2 -5,-5 -10,-10l-41 -40 6 -6 41 39c7,6 11,11 13,16 3,4 4,10 3,16 0,6 -3,12 -8,17 -5,5 -11,9 -17,10 -6,2 -12,1 -18,-2 -3,-2 -9,-6 -15,-12l-42 -39zm86 -81l44 -31 6 8 -37 25 17 24 36 -25 6 7 -36 26 21 30 36 -26 5 8 -43 31 -55 -77zm153 -82l9 -3 11 38 46 -13 -11 -38 9 -3 26 91 -9 2 -12 -43 -46 13 12 43 -9 3 -26 -90zm163 -30l46 93 -10 0 -15 -30 -41 1 -14 31 -10 0 42 -95 2 0zm-1 20l-15 34 32 -1 -17 -33zm179 19l-9 4c-2,-6 -6,-11 -11,-15 -5,-4 -11,-7 -18,-8 -7,-2 -14,-2 -21,0 -7,2 -13,6 -18,11 -5,5 -8,11 -10,19 -2,11 0,21 5,30 6,10 15,16 27,18 13,3 24,1 35,-7l6 7c-6,4 -12,8 -20,9 -7,2 -15,2 -24,0 -16,-4 -27,-12 -34,-25 -6,-11 -7,-23 -4,-35 3,-14 10,-24 22,-31 11,-7 24,-9 38,-5 9,2 16,5 22,10 6,5 11,11 14,18zm53 1l49 23 -4 8 -41 -18 -12 26 40 19 -3 8 -40 -18 -16 34 40 18 -3 8 -49 -22 39 -86zm37 123l58 -74 2 1 5 95 44 -56 7 6 -58 74 -1 -2 -5 -94 -44 56 -8 -6zm199 61l5 8 -69 49 21 30 -7 5 -27 -37 77 -55zm67 119l-71 75 -4 -10 23 -25 -15 -37 -34 -3 -4 -9 104 6 1 3zm-19 6l-38 -3 12 30 26 -27zm-34 154l94 -2 0 19c0,14 0,24 -2,31 -3,9 -9,16 -17,21 -7,6 -17,9 -27,9 -10,0 -18,-2 -25,-6 -8,-4 -13,-9 -17,-15 -3,-6 -5,-16 -5,-27l-1 -30zm9 9l0 11c1,12 2,21 3,26 3,7 7,13 13,17 6,4 14,5 22,5 9,0 17,-2 23,-7 7,-5 11,-11 13,-19 2,-5 2,-15 2,-29l0 -6 -76 2zm81 113l-1 9 -93 -11 1 -10 93 12zm-10 59l-12 45 -9 -3 10 -36 -28 -8 -11 36 -8 -2 10 -36 -44 -13 2 -9 90 26zm-28 87l-23 49 -8 -4 18 -40 -26 -13 -19 40 -8 -3 18 -40 -33 -16 -19 40 -8 -3 22 -49 86 39zm-49 91l-11 15c-6,8 -10,14 -13,16 -4,4 -9,6 -15,7 -5,0 -10,-1 -15,-5 -5,-3 -8,-6 -9,-11 -2,-4 -2,-8 -1,-13 1,-5 3,-11 8,-17l-55 2 6 -9 56 -2 3 -5 -36 -25 6 -8 76 55zm-13 2l-26 -18 -9 13c-4,5 -6,9 -7,12 -1,3 -1,6 1,9 1,3 3,5 5,7 3,2 6,3 9,3 3,0 6,-1 8,-2 3,-2 6,-5 9,-10l10 -14zm-57 84l-39 37 -7 -7 32 -30 -20 -22 -32 31 -6 -7 32 -30 -26 -27 -32 30 -6 -6 39 -37 65 68zm-129 -13l47 82 -2 1 -90 -31 36 62 -8 5 -47 -82 2 -1 89 31 -35 -62 8 -5zm-161 150l5 -7c6,4 11,6 18,7 6,1 12,1 19,-1 7,-2 13,-5 18,-11 6,-5 9,-11 11,-18 1,-6 1,-13 -1,-21 -3,-11 -9,-19 -19,-24 -10,-5 -20,-6 -32,-3 -12,3 -21,11 -27,24l-9 -4c3,-7 7,-13 13,-18 6,-5 13,-8 21,-11 16,-4 30,-3 42,5 11,7 17,17 21,29 4,13 2,26 -4,38 -7,11 -18,19 -32,23 -8,2 -16,3 -24,1 -7,-1 -14,-4 -20,-9zm-46 23l-10 1 -7 -94 10 -1 7 94zm-98 1l-37 -97 10 1 13 32 40 3 17 -30 10 1 -51 90 -2 0zm2 -19l19 -33 -32 -3 13 36z"/>
  <line class="fil1 str0" x1="1358" y1="7591" x2="5932" y2= "7591" />
 </g>
</svg>
